<?xml version="1.0" standalone="no"?>
<!DOCTYPE svg PUBLIC "-//W3C//DTD SVG 20010904//EN"
 "http://www.w3.org/TR/2001/REC-SVG-20010904/DTD/svg10.dtd">
<svg version="1.0" xmlns="http://www.w3.org/2000/svg"
 width="512.000000pt" height="512.000000pt" viewBox="0 0 512.000000 512.000000"
 preserveAspectRatio="xMidYMid meet">
<metadata>
Created by potrace 1.11, written by Peter Selinger 2001-2013
</metadata>
<g transform="translate(0.000000,512.000000) scale(0.100000,-0.100000)"
fill="#000000" stroke="none">
<path d="M2440 4556 c-112 -31 -219 -110 -281 -207 -90 -140 -92 -344 -6 -491
51 -88 163 -175 270 -211 15 -6 17 -23 17 -167 l0 -160 -480 0 c-400 0 -494
-3 -558 -16 -268 -55 -482 -242 -567 -497 -14 -43 -31 -125 -37 -185 l-11
-107 -73 -23 c-138 -42 -285 -164 -354 -293 -52 -98 -71 -166 -77 -276 -9
-153 27 -277 116 -407 71 -102 223 -209 342 -240 l54 -13 7 -63 c9 -82 50
-201 96 -280 20 -36 76 -104 123 -151 74 -75 99 -93 190 -137 179 -87 107 -83
1384 -80 l1120 3 70 24 c296 100 496 333 532 620 l8 64 54 13 c94 24 190 82
271 164 119 119 177 248 187 411 7 120 -13 219 -67 327 -73 146 -216 269 -365
315 l-74 22 -6 85 c-24 290 -177 523 -420 640 -155 75 -141 73 -712 77 l-513
4 0 160 c0 143 2 160 18 165 102 33 214 121 269 210 87 143 83 352 -9 496 -61
97 -181 183 -289 207 -59 14 -174 12 -229 -3z m210 -247 c60 -27 88 -54 116
-114 41 -86 29 -172 -33 -245 -47 -54 -102 -80 -173 -80 -71 0 -126 26 -173
80 -60 71 -73 158 -36 240 27 60 54 88 114 116 62 29 125 30 185 3z m1025
-1244 c188 -40 334 -176 389 -364 14 -48 16 -144 16 -765 0 -584 -3 -721 -15
-765 -47 -179 -195 -323 -376 -366 -96 -22 -2162 -22 -2258 0 -181 43 -340
199 -380 375 -7 29 -11 302 -11 756 0 621 2 717 16 765 54 185 201 324 384
363 99 22 2133 22 2235 1z m-2885 -1175 c0 -249 -3 -370 -10 -370 -22 0 -86
39 -132 80 -32 27 -60 67 -85 118 -36 72 -38 81 -38 171 0 87 3 102 32 164 36
76 108 152 175 186 24 11 46 21 51 21 4 0 7 -166 7 -370z m3637 323 c63 -42
104 -91 141 -170 23 -50 27 -71 27 -153 0 -82 -4 -103 -27 -153 -15 -32 -42
-77 -60 -99 -32 -41 -140 -118 -165 -118 -11 0 -13 67 -13 371 l0 370 23 -7
c12 -3 46 -22 74 -41z"/>
<path d="M1600 2546 c-193 -41 -317 -241 -270 -435 27 -115 132 -221 249 -255
69 -20 123 -20 192 0 158 46 258 179 259 341 0 97 -27 167 -92 239 -59 64
-119 98 -203 113 -68 13 -64 13 -135 -3z m156 -270 c28 -28 34 -42 34 -75 0
-76 -80 -136 -148 -110 -65 25 -97 90 -72 150 19 45 56 69 107 69 38 0 50 -5
79 -34z"/>
<path d="M3370 2546 c-80 -18 -130 -48 -188 -110 -72 -79 -95 -146 -90 -256 5
-91 23 -140 79 -211 56 -71 179 -129 275 -129 63 0 164 35 214 76 99 79 146
184 138 308 -14 213 -222 369 -428 322z m142 -256 c74 -58 55 -165 -34 -199
-72 -27 -148 31 -148 112 0 31 7 46 34 73 29 29 41 34 79 34 29 0 53 -7 69
-20z"/>
<path d="M2162 1444 c-30 -21 -52 -66 -52 -109 0 -26 9 -45 34 -73 l34 -37
363 -3 c260 -2 371 1 391 9 68 28 97 104 63 169 -32 61 -24 60 -435 60 -324 0
-379 -2 -398 -16z"/>
</g>
</svg>
